<?xml version="1.0" encoding="UTF-8" standalone="no"?>
<!-- Created with Inkscape (http://www.inkscape.org/) -->

<svg
   width="15.82606mm"
   height="2.1338573mm"
   viewBox="0 0 15.82606 2.1338573"
   version="1.1"
   id="svg1"
   sodipodi:docname="Logo.svg"
   inkscape:version="1.3 (0e150ed6c4, 2023-07-21)"
   xmlns:inkscape="http://www.inkscape.org/namespaces/inkscape"
   xmlns:sodipodi="http://sodipodi.sourceforge.net/DTD/sodipodi-0.dtd"
   xmlns="http://www.w3.org/2000/svg"
   xmlns:svg="http://www.w3.org/2000/svg">
  <sodipodi:namedview
     id="namedview1"
     pagecolor="#505050"
     bordercolor="#ffffff"
     borderopacity="1"
     inkscape:showpageshadow="0"
     inkscape:pageopacity="0"
     inkscape:pagecheckerboard="1"
     inkscape:deskcolor="#d1d1d1"
     inkscape:document-units="mm"
     showguides="false"
     inkscape:zoom="12.772709"
     inkscape:cx="29.907516"
     inkscape:cy="4.0711801"
     inkscape:window-width="1920"
     inkscape:window-height="1017"
     inkscape:window-x="-8"
     inkscape:window-y="-8"
     inkscape:window-maximized="1"
     inkscape:current-layer="layer1" />
  <defs
     id="defs1">
    <rect
       x="153.39517"
       y="135.55852"
       width="492.29147"
       height="267.54971"
       id="rect40738" />
  </defs>
  <g
     inkscape:label="Layer 1"
     inkscape:groupmode="layer"
     id="layer1"
     transform="translate(-106.73382,-103.85989)">
    <path
       style="font-weight:bold;font-size:40px;line-height:1.25;font-family:Comfortaa;-inkscape-font-specification:'Comfortaa Bold';font-variation-settings:'wght' 400;white-space:pre;fill:#ffefee"
       d="m 159.47453,172.22526 q -0.88,0 -1.48,-0.6 -0.6,-0.6 -0.6,-1.48 v -27.08 q 0,-0.92 0.6,-1.48 0.6,-0.6 1.48,-0.6 h 8 q 3,0 5.32,1.32 2.32,1.32 3.6,3.68 1.32,2.32 1.32,5.36 0,2.92 -1.32,5.2 -1.28,2.28 -3.6,3.56 -2.32,1.28 -5.32,1.28 h -5.92 v 8.76 q 0,0.88 -0.6,1.48 -0.56,0.6 -1.48,0.6 z m 2.08,-14.68 h 5.92 q 1.84,0 3.24,-0.8 1.4,-0.8 2.2,-2.2 0.8,-1.4 0.8,-3.2 0,-1.92 -0.8,-3.36 -0.8,-1.48 -2.2,-2.32 -1.4,-0.84 -3.24,-0.84 h -5.92 z m 29.47995,14.84 q -3.24,0 -5.72,-1.4 -2.48,-1.44 -3.92,-3.92 -1.4,-2.52 -1.4,-5.76 0,-3.28 1.4,-5.76 1.44,-2.52 3.92,-3.92 2.48,-1.44 5.72,-1.44 3.2,0 5.68,1.44 2.48,1.4 3.88,3.92 1.44,2.48 1.44,5.76 0,3.24 -1.4,5.76 -1.4,2.48 -3.88,3.92 -2.48,1.4 -5.72,1.4 z m 0,-3.6 q 2.08,0 3.68,-0.96 1.6,-0.96 2.48,-2.64 0.92,-1.68 0.92,-3.88 0,-2.2 -0.92,-3.88 -0.88,-1.72 -2.48,-2.68 -1.6,-0.96 -3.68,-0.96 -2.08,0 -3.68,0.96 -1.6,0.96 -2.52,2.68 -0.92,1.68 -0.92,3.88 0,2.2 0.92,3.88 0.92,1.68 2.52,2.64 1.6,0.96 3.68,0.96 z m 19.15997,2.68 -2.72,-2.4 13.6,-17.96 2.68,2.4 z m -1.2,0.76 q -1.88,0 -1.88,-1.88 0,-1.88 1.88,-1.88 h 13.64 q 1.88,0 1.88,1.88 0,1.88 -1.88,1.88 z m -0.4,-18.12 q -1.88,0 -1.88,-1.88 0,-1.88 1.88,-1.88 h 13.64 q 1.88,0 1.88,1.88 0,1.88 -1.88,1.88 z m 39.60004,18.16 q -0.88,0 -1.48,-0.56 -0.56,-0.6 -0.56,-1.48 v -9.84 q 0,-2.28 -0.84,-3.72 -0.84,-1.44 -2.28,-2.12 -1.4,-0.72 -3.24,-0.72 -1.68,0 -3.04,0.68 -1.36,0.68 -2.16,1.84 -0.8,1.12 -0.8,2.6 h -2.52 q 0,-2.52 1.2,-4.48 1.24,-2 3.36,-3.16 2.12,-1.16 4.76,-1.16 2.76,0 4.92,1.2 2.2,1.16 3.44,3.44 1.28,2.28 1.28,5.6 v 9.84 q 0,0.88 -0.6,1.48 -0.56,0.56 -1.44,0.56 z m -16.44,0 q -0.88,0 -1.48,-0.56 -0.56,-0.6 -0.56,-1.48 v -17.84 q 0,-0.92 0.56,-1.48 0.6,-0.56 1.48,-0.56 0.92,0 1.48,0.56 0.56,0.56 0.56,1.48 v 17.84 q 0,0.88 -0.56,1.48 -0.56,0.56 -1.48,0.56 z m 35.51996,0.12 q -3.32,0 -5.92,-1.4 -2.56,-1.44 -4.04,-3.92 -1.44,-2.52 -1.44,-5.76 0,-3.28 1.36,-5.76 1.4,-2.52 3.84,-3.92 2.44,-1.44 5.6,-1.44 3.12,0 5.36,1.4 2.24,1.36 3.4,3.8 1.2,2.4 1.2,5.56 0,0.76 -0.52,1.28 -0.52,0.48 -1.32,0.48 h -16.12 v -3.2 h 16 l -1.64,1.12 q -0.04,-2 -0.8,-3.56 -0.76,-1.6 -2.16,-2.52 -1.4,-0.92 -3.4,-0.92 -2.28,0 -3.92,1 -1.6,1 -2.44,2.76 -0.84,1.72 -0.84,3.92 0,2.2 1,3.92 1,1.72 2.76,2.72 1.76,1 4.04,1 1.24,0 2.52,-0.44 1.32,-0.48 2.12,-1.08 0.6,-0.44 1.28,-0.44 0.72,-0.04 1.24,0.4 0.68,0.6 0.72,1.32 0.04,0.72 -0.64,1.24 -1.36,1.08 -3.4,1.76 -2,0.68 -3.84,0.68 z m 8.56001,9.2 q -0.88,0 -1.44,-0.6 -0.56,-0.56 -0.56,-1.44 0,-0.92 0.56,-1.48 0.56,-0.56 1.44,-0.56 1.6,0 2.8,-0.72 1.2,-0.68 1.88,-1.88 0.72,-1.2 0.72,-2.76 v -19.76 q 0,-0.92 0.56,-1.48 0.6,-0.56 1.48,-0.56 0.92,0 1.48,0.56 0.56,0.56 0.56,1.48 v 19.76 q 0,2.76 -1.24,4.88 -1.2,2.12 -3.32,3.32 -2.12,1.24 -4.92,1.24 z m 7.44,-34.8 q -1.08,0 -1.88,-0.76 -0.76,-0.8 -0.76,-1.88 0,-1.08 0.76,-1.84 0.8,-0.8 1.88,-0.8 1.08,0 1.84,0.8 0.8,0.76 0.8,1.84 0,1.08 -0.8,1.88 -0.76,0.76 -1.84,0.76 z m 23.83999,25.44 q -0.84,0 -1.48,-0.6 -0.6,-0.6 -0.6,-1.48 v -27.08 q 0,-0.88 0.6,-1.48 0.64,-0.6 1.48,-0.6 0.88,0 1.48,0.6 0.6,0.6 0.6,1.48 v 12 l 13.24,-13.24 q 0.48,-0.48 0.88,-0.64 0.4,-0.2 0.84,-0.2 1,0 1.44,0.6 0.44,0.6 0.32,1.44 -0.12,0.8 -0.76,1.48 l -10.2,10.24 10.4,14.16 q 0.48,0.68 0.4,1.48 -0.08,0.76 -0.56,1.32 -0.48,0.52 -1.28,0.52 -1.12,0 -1.72,-0.88 l -10.12,-13.72 -2.88,2.88 v 9.64 q 0,0.88 -0.6,1.48 -0.6,0.6 -1.48,0.6 z m 28.12,9.6 q -0.4,0 -0.96,-0.24 -1.76,-0.8 -0.96,-2.52 l 12.2,-27.56 q 0.8,-1.68 2.52,-0.96 1.8,0.76 1,2.52 l -12.24,27.52 q -0.48,1.24 -1.56,1.24 z m 4.72,-10.48 q -0.76,0.32 -1.44,0.08 -0.64,-0.28 -1.04,-1.04 l -9.16,-17.4 q -0.4,-0.76 -0.12,-1.44 0.32,-0.72 1.08,-1.04 0.76,-0.32 1.44,-0.04 0.68,0.24 1.04,1 l 8.76,17.4 q 0.4,0.76 0.28,1.48 -0.08,0.68 -0.84,1 z m 20.87998,0.88 q -2,0 -3.6,-1 -1.6,-1.04 -2.52,-2.8 -0.92,-1.76 -0.92,-3.96 v -19.08 q 0,-0.88 0.56,-1.44 0.56,-0.56 1.44,-0.56 0.88,0 1.44,0.56 0.56,0.56 0.56,1.44 v 19.08 q 0,1.6 0.88,2.68 0.88,1.08 2.16,1.08 h 1.36 q 0.72,0 1.2,0.56 0.52,0.56 0.52,1.44 0,0.88 -0.68,1.44 -0.64,0.56 -1.68,0.56 z m -8.88,-17.64 q -0.84,0 -1.36,-0.48 -0.52,-0.48 -0.52,-1.2 0,-0.8 0.52,-1.28 0.52,-0.48 1.36,-0.48 h 9.24 q 0.84,0 1.36,0.48 0.52,0.48 0.52,1.28 0,0.72 -0.52,1.2 -0.52,0.48 -1.36,0.48 z m 20.79996,9.64 -2.48,-2.72 12.28,-10.96 q 0.6,-0.56 1.32,-0.52 0.76,0.04 1.28,0.64 0.56,0.6 0.52,1.32 -0.04,0.72 -0.64,1.28 z m -1.88,8 q -0.88,0 -1.44,-0.52 -0.52,-0.56 -0.52,-1.44 v -27.32 q 0,-0.88 0.52,-1.4 0.56,-0.56 1.44,-0.56 0.88,0 1.4,0.56 0.56,0.52 0.56,1.4 v 27.32 q 0,0.88 -0.56,1.44 -0.52,0.52 -1.4,0.52 z m 14.28,-0.2 q -0.64,0.52 -1.44,0.44 -0.76,-0.04 -1.28,-0.68 l -8.12,-10.04 2.8,-2.64 8.32,10.24 q 0.52,0.64 0.44,1.4 -0.04,0.72 -0.72,1.28 z m 15.72001,0.4 q -2.76,0 -4.96,-1.16 -2.16,-1.2 -3.44,-3.48 -1.24,-2.28 -1.24,-5.6 v -9.84 q 0,-0.88 0.56,-1.44 0.6,-0.6 1.48,-0.6 0.88,0 1.44,0.6 0.6,0.56 0.6,1.44 v 9.84 q 0,2.24 0.84,3.72 0.84,1.44 2.28,2.16 1.44,0.68 3.24,0.68 1.72,0 3.04,-0.68 1.36,-0.68 2.16,-1.84 0.8,-1.16 0.8,-2.6 h 2.52 q 0,2.48 -1.24,4.48 -1.2,2 -3.32,3.16 -2.08,1.16 -4.76,1.16 z m 8.84,-0.2 q -0.88,0 -1.48,-0.56 -0.56,-0.6 -0.56,-1.48 v -17.84 q 0,-0.92 0.56,-1.48 0.6,-0.56 1.48,-0.56 0.92,0 1.48,0.56 0.56,0.56 0.56,1.48 v 17.84 q 0,0.88 -0.56,1.48 -0.56,0.56 -1.48,0.56 z"
       id="text40700"
       transform="matrix(0.0518021,0,0,0.0518021,101.23014,96.574819)"
       aria-label="Poznej Kytku" />
    <path
       id="path40702"
       style="fill:none;fill-opacity:1;stroke:#ffefee;stroke-width:0.165;stroke-linecap:butt;stroke-linejoin:round;stroke-dasharray:none;stroke-opacity:1"
       d="m 106.81632,103.94239 v 0.79065 a 0.7904824,0.7904824 0 0 0 0.79065,0.79065 0.7904824,0.7904824 0 0 0 0.79065,-0.79065 v -0.79065 a 0.7904824,0.7904824 0 0 0 -0.79065,0.79065 0.7904824,0.7904824 0 0 0 -0.79065,-0.79065 z"
       inkscape:export-filename="Poznej kytku.svg"
       inkscape:export-xdpi="300"
       inkscape:export-ydpi="300" />
  </g>
</svg>
