<?xml version="1.0" encoding="UTF-8" standalone="no"?>
<!-- Created with Inkscape (http://www.inkscape.org/) -->

<svg
   version="1.1"
   id="svg398"
   width="259.49805"
   height="162.92236"
   viewBox="0 0 259.49804 162.92236"
   sodipodi:docname="MG_SZS_VOSZ_logomanual (3).pdf.2023_02_27_11_24_43.0.svg"
   xmlns:inkscape="http://www.inkscape.org/namespaces/inkscape"
   xmlns:sodipodi="http://sodipodi.sourceforge.net/DTD/sodipodi-0.dtd"
   xmlns="http://www.w3.org/2000/svg"
   xmlns:svg="http://www.w3.org/2000/svg">
  <defs
     id="defs402">
    <clipPath
       clipPathUnits="userSpaceOnUse"
       id="clipPath8278">
      <path
         d="M 0,0 H 841.89 V 595.276 H 0 Z"
         id="path8276" />
    </clipPath>
    <clipPath
       clipPathUnits="userSpaceOnUse"
       id="clipPath8294">
      <path
         d="M 0,0 H 841.89 V 595.276 H 0 Z"
         id="path8292" />
    </clipPath>
    <clipPath
       clipPathUnits="userSpaceOnUse"
       id="clipPath8310">
      <path
         d="M 0,0 H 841.89 V 595.276 H 0 Z"
         id="path8308" />
    </clipPath>
    <clipPath
       clipPathUnits="userSpaceOnUse"
       id="clipPath8338">
      <path
         d="M 0,0 H 841.89 V 595.276 H 0 Z"
         id="path8336" />
    </clipPath>
    <clipPath
       clipPathUnits="userSpaceOnUse"
       id="clipPath8358">
      <path
         d="M 0,0 H 841.89 V 595.276 H 0 Z"
         id="path8356" />
    </clipPath>
    <clipPath
       clipPathUnits="userSpaceOnUse"
       id="clipPath8374">
      <path
         d="M 0,0 H 841.89 V 595.276 H 0 Z"
         id="path8372" />
    </clipPath>
  </defs>
  <sodipodi:namedview
     id="namedview400"
     pagecolor="#505050"
     bordercolor="#ffffff"
     borderopacity="1"
     inkscape:showpageshadow="0"
     inkscape:pageopacity="0"
     inkscape:pagecheckerboard="1"
     inkscape:deskcolor="#505050"
     showgrid="false">
    <inkscape:page
       x="-2.5481597e-05"
       y="6.6549437e-06"
       width="259.49805"
       height="162.92236"
       id="page1"
       margin="0"
       bleed="0" />
  </sodipodi:namedview>
  <g
     id="g8264"
     inkscape:groupmode="layer"
     inkscape:label="Page 17"
     transform="matrix(1.3333333,0,0,-1.3333333,-625.53568,313.71878)">
    <g
       id="g8272">
      <g
         id="g8274"
         clip-path="url(#clipPath8278)">
        <g
           id="g8280"
           transform="translate(536.563,196.5419)">
          <path
             d="M 0,0 C 0,-1.231 -0.123,-2.434 -0.359,-3.598 L 4.646,7.912 17.227,36.835 H -9.675 l -8.264,-18.9 C -8.03,17.935 0,9.908 0,0"
             style="fill:#ffffff;fill-opacity:1;fill-rule:nonzero;stroke:none"
             id="path8282" />
        </g>
      </g>
    </g>
    <g
       id="g8284"
       transform="translate(534.8416,186.6818)">
      <path
         d="M 0,0 V -0.004 L 5.826,-34.178 H 33.254 L 19.331,44.436 Z"
         style="fill:#ffffff;fill-opacity:1;fill-rule:nonzero;stroke:none"
         id="path8286" />
    </g>
    <g
       id="g8288">
      <g
         id="g8290"
         clip-path="url(#clipPath8294)">
        <g
           id="g8296"
           transform="translate(500.6829,196.5419)">
          <path
             d="M 0,0 C 0,-1.231 0.123,-2.434 0.359,-3.598 L -4.646,7.912 -17.227,36.835 H 9.675 l 8.264,-18.9 C 8.03,17.935 0,9.908 0,0"
             style="fill:#ffffff;fill-opacity:1;fill-rule:nonzero;stroke:none"
             id="path8298" />
        </g>
      </g>
    </g>
    <g
       id="g8300"
       transform="translate(502.4045,186.6818)">
      <path
         d="m 0,0 v -0.004 l -5.826,-34.174 h -27.428 l 13.923,78.614 z"
         style="fill:#ffffff;fill-opacity:1;fill-rule:nonzero;stroke:none"
         id="path8302" />
    </g>
    <g
       id="g8304">
      <g
         id="g8306"
         clip-path="url(#clipPath8310)">
        <g
           id="g8312"
           transform="translate(533.3628,186.3232)">
          <path
             d="m 0,0 -14.736,-33.807 -0.004,0.007 -14.625,33.629 c 3.252,-4.565 8.588,-7.542 14.625,-7.542 6.108,0 11.505,3.052 14.74,7.713"
             style="fill:#ffffff;fill-opacity:1;fill-rule:nonzero;stroke:none"
             id="path8314" />
        </g>
        <g
           id="g8316"
           transform="translate(535.0764,196.5339)">
          <path
             d="m 0,0 c 0,-9.068 -7.38,-16.445 -16.453,-16.445 h -0.005 c -9.073,0.063 -16.453,7.441 -16.453,16.445 0,9.008 7.328,16.39 16.335,16.454 h 0.123 c 5.104,0 9.858,-2.359 12.951,-6.303 l -7.082,-3.076 -0.083,0.069 c -1.631,1.35 -3.678,2.094 -5.786,2.099 l -0.116,-0.005 c -4.997,-0.044 -9.061,-4.182 -9.061,-9.226 0,-5.04 4.064,-9.175 9.061,-9.219 l 0.116,-0.003 c 4.036,0.011 7.615,2.74 8.75,6.588 h -6.535 V 3.522 H -0.12 l 0.048,-0.51 C -0.016,2.466 0,0.275 0,0"
             style="fill:#ffffff;fill-opacity:1;fill-rule:nonzero;stroke:none"
             id="path8318" />
        </g>
        <g
           id="g8320"
           transform="translate(621.3257,220.2131)">
          <path
             d="m 0,0 c -2.526,8.679 -10.631,15.076 -20.1,15.076 -11.467,0 -20.762,-9.293 -20.762,-20.756 0,-5.07 1.82,-9.714 4.84,-13.319 L 0,-66.645 Z"
             style="fill:#ffffff;fill-opacity:1;fill-rule:nonzero;stroke:none"
             id="path8322" />
        </g>
        <g
           id="g8324"
           transform="translate(642.9126,235.2886)">
          <path
             d="m 0,0 c -9.463,0 -17.564,-6.388 -20.095,-15.058 v -66.657 l 36.016,47.641 c 3.02,3.604 4.839,8.25 4.839,13.319 C 20.76,-9.293 11.465,0 0,0 M 9.856,-26.992 H 2.894 v -6.961 h -7.292 v 6.961 h -6.961 v 7.29 h 6.961 v 6.96 h 7.292 v -6.96 h 6.962 z"
             style="fill:#ffffff;fill-opacity:1;fill-rule:nonzero;stroke:none"
             id="path8326" />
        </g>
      </g>
    </g>
    <g
       id="g8328"
       transform="translate(469.2187,113.4841)">
      <path
         d="m 0,0 2.927,17.196 h 4.432 l 3.498,-9.178 3.706,9.178 h 4.483 L 21.637,0 H 17.153 L 15.884,9.9 11.712,0 H 9.924 L 5.933,9.9 4.457,0 Z"
         style="fill:#ffffff;fill-opacity:1;fill-rule:nonzero;stroke:none"
         id="path8330" />
    </g>
    <g
       id="g8332">
      <g
         id="g8334"
         clip-path="url(#clipPath8338)">
        <g
           id="g8340"
           transform="translate(504.0715,123.2292)">
          <path
             d="m 0,0 h 8.914 c 0,-3.403 -0.7,-5.826 -2.773,-7.734 C 4.327,-9.41 2.254,-9.9 0.051,-9.9 c -3.108,0 -5.234,1.135 -6.633,2.553 -1.295,1.288 -2.488,3.377 -2.488,6.212 0,2.733 1.089,4.976 2.592,6.446 1.426,1.418 3.654,2.527 6.711,2.527 1.607,0 3.343,-0.361 4.664,-1.161 C 6.245,5.853 7.36,4.486 7.981,3.145 L 3.705,1.392 C 3.395,2.191 2.902,2.759 2.461,3.12 1.711,3.738 0.907,3.97 0.051,3.97 -1.01,3.97 -2.099,3.583 -2.902,2.784 -3.912,1.779 -4.406,0.181 -4.406,-1.16 c 0,-1.573 0.57,-2.861 1.375,-3.713 0.828,-0.876 1.839,-1.314 3.16,-1.314 0.778,0 1.684,0.128 2.489,0.799 0.413,0.335 0.906,0.954 1.061,1.907 H 0 Z"
             style="fill:#ffffff;fill-opacity:1;fill-rule:nonzero;stroke:none"
             id="path8342" />
        </g>
        <g
           id="g8344"
           transform="translate(519.0493,118.6403)">
          <path
             d="m 0,0 c 0.959,-0.903 2.41,-1.753 3.965,-1.753 0.907,0 1.451,0.284 1.737,0.593 0.258,0.257 0.439,0.644 0.439,1.083 0,0.334 -0.13,0.721 -0.492,1.031 C 5.208,1.341 4.535,1.521 3.421,1.856 L 2.255,2.217 c -0.726,0.232 -1.789,0.618 -2.488,1.392 -0.881,0.954 -0.985,2.166 -0.985,3.043 0,2.113 0.83,3.403 1.581,4.15 0.882,0.876 2.332,1.624 4.431,1.624 1.71,0 3.706,-0.541 5.337,-1.392 L 8.344,7.553 C 6.996,8.611 5.986,8.714 5.39,8.714 4.95,8.714 4.353,8.611 3.914,8.199 3.654,7.94 3.472,7.657 3.472,7.27 3.472,6.961 3.524,6.729 3.706,6.497 3.836,6.342 4.146,6.033 5.208,5.723 L 6.582,5.311 C 7.67,4.975 8.81,4.589 9.718,3.609 c 0.881,-0.927 1.114,-1.881 1.114,-3.067 0,-1.573 -0.389,-3.094 -1.633,-4.332 -1.477,-1.47 -3.264,-1.753 -5.105,-1.753 -1.088,0 -2.124,0.103 -3.395,0.568 -0.284,0.102 -1.373,0.514 -2.616,1.366 z"
             style="fill:#ffffff;fill-opacity:1;fill-rule:nonzero;stroke:none"
             id="path8346" />
        </g>
      </g>
    </g>
    <g
       id="g8348"
       transform="translate(540.8425,117.2739)">
      <path
         d="M 0,0 H 7.255 V -3.79 H -7.541 L 0.648,9.617 h -6.789 v 3.789 H 8.136 Z"
         style="fill:#ffffff;fill-opacity:1;fill-rule:nonzero;stroke:none"
         id="path8350" />
    </g>
    <g
       id="g8352">
      <g
         id="g8354"
         clip-path="url(#clipPath8358)">
        <g
           id="g8360"
           transform="translate(553.4111,135.8359)">
          <path
             d="M 0,0 1.761,1.985 5.078,-0.542 8.369,1.985 10.209,0 5.078,-3.79 Z m 0.284,-17.196 c 0.959,-0.902 2.41,-1.753 3.965,-1.753 0.907,0 1.451,0.284 1.737,0.593 0.258,0.258 0.439,0.644 0.439,1.084 0,0.334 -0.129,0.72 -0.492,1.03 -0.44,0.387 -1.114,0.568 -2.228,0.902 l -1.167,0.361 c -0.725,0.232 -1.788,0.619 -2.487,1.392 -0.881,0.954 -0.985,2.166 -0.985,3.043 0,2.113 0.83,3.403 1.581,4.151 0.881,0.876 2.332,1.624 4.431,1.624 1.711,0 3.706,-0.542 5.338,-1.392 L 8.628,-9.642 c -1.347,1.058 -2.358,1.16 -2.953,1.16 -0.441,0 -1.038,-0.102 -1.477,-0.515 -0.26,-0.258 -0.442,-0.542 -0.442,-0.928 0,-0.31 0.053,-0.542 0.234,-0.774 0.13,-0.155 0.44,-0.463 1.503,-0.773 l 1.373,-0.413 c 1.088,-0.335 2.228,-0.722 3.136,-1.702 0.881,-0.927 1.114,-1.881 1.114,-3.067 0,-1.573 -0.389,-3.094 -1.633,-4.331 -1.476,-1.47 -3.264,-1.753 -5.104,-1.753 -1.089,0 -2.125,0.102 -3.396,0.567 -0.284,0.102 -1.372,0.515 -2.616,1.366 z"
             style="fill:#ffffff;fill-opacity:1;fill-rule:nonzero;stroke:none"
             id="path8362" />
        </g>
      </g>
    </g>
    <g
       id="g8364"
       transform="translate(572.5085,130.6801)">
      <path
         d="M 0,0 4.146,-10.467 8.344,0 h 4.871 L 5.856,-17.196 H 2.358 L -4.897,0 Z"
         style="fill:#ffffff;fill-opacity:1;fill-rule:nonzero;stroke:none"
         id="path8366" />
    </g>
    <g
       id="g8368">
      <g
         id="g8370"
         clip-path="url(#clipPath8374)">
        <g
           id="g8376"
           transform="translate(594.2239,125.3688)">
          <path
             d="m 0,0 c -0.932,-0.901 -1.373,-2.166 -1.373,-3.377 0,-1.522 0.725,-2.578 1.373,-3.197 0.83,-0.799 1.995,-1.366 3.499,-1.366 1.528,0 2.669,0.542 3.472,1.341 0.803,0.799 1.398,1.985 1.398,3.3 0,1.34 -0.595,2.526 -1.398,3.299 C 6.011,0.903 4.69,1.367 3.499,1.367 2.254,1.367 0.932,0.928 0,0 m 10.313,-9.719 c -1.762,-1.676 -4.249,-2.552 -6.814,-2.552 -2.567,0 -5.054,0.876 -6.816,2.552 -1.84,1.753 -2.72,4.151 -2.72,6.42 0,2.294 0.88,4.717 2.72,6.444 1.762,1.677 4.249,2.553 6.816,2.553 2.565,0 5.052,-0.876 6.814,-2.553 1.841,-1.727 2.72,-4.15 2.72,-6.444 0,-2.269 -0.879,-4.667 -2.72,-6.42"
             style="fill:#ffffff;fill-opacity:1;fill-rule:nonzero;stroke:none"
             id="path8378" />
        </g>
        <g
           id="g8380"
           transform="translate(613.0371,135.8359)">
          <path
             d="M 0,0 1.761,1.985 5.078,-0.542 8.369,1.985 10.21,0 5.078,-3.79 Z m 0.284,-17.196 c 0.96,-0.902 2.411,-1.753 3.965,-1.753 0.907,0 1.451,0.284 1.737,0.593 0.259,0.258 0.439,0.644 0.439,1.084 0,0.334 -0.129,0.72 -0.491,1.03 -0.441,0.387 -1.115,0.568 -2.229,0.902 l -1.167,0.361 c -0.725,0.232 -1.788,0.619 -2.487,1.392 -0.881,0.954 -0.984,2.166 -0.984,3.043 0,2.113 0.829,3.403 1.58,4.151 0.881,0.876 2.332,1.624 4.431,1.624 1.711,0 3.706,-0.542 5.338,-1.392 L 8.628,-9.642 c -1.347,1.058 -2.358,1.16 -2.953,1.16 -0.441,0 -1.038,-0.102 -1.477,-0.515 -0.26,-0.258 -0.442,-0.542 -0.442,-0.928 0,-0.31 0.053,-0.542 0.235,-0.774 0.129,-0.155 0.439,-0.463 1.502,-0.773 l 1.374,-0.413 c 1.087,-0.335 2.227,-0.722 3.135,-1.702 0.881,-0.927 1.114,-1.881 1.114,-3.067 0,-1.573 -0.389,-3.094 -1.632,-4.331 -1.477,-1.47 -3.265,-1.753 -5.105,-1.753 -1.089,0 -2.125,0.102 -3.395,0.567 -0.285,0.102 -1.373,0.515 -2.617,1.366 z"
             style="fill:#ffffff;fill-opacity:1;fill-rule:nonzero;stroke:none"
             id="path8382" />
        </g>
      </g>
    </g>
    <g
       id="g8384"
       transform="translate(635.1147,117.2739)">
      <path
         d="M 0,0 H 7.255 V -3.79 H -7.541 L 0.648,9.617 h -6.789 v 3.789 H 8.136 Z"
         style="fill:#ffffff;fill-opacity:1;fill-rule:nonzero;stroke:none"
         id="path8386" />
    </g>
    <g
       id="g8388"
       transform="translate(650.5591,130.6801)">
      <path
         d="M 0,0 4.146,-10.467 8.344,0 h 4.871 L 5.857,-17.196 H 2.358 L -4.897,0 Z"
         style="fill:#ffffff;fill-opacity:1;fill-rule:nonzero;stroke:none"
         id="path8390" />
    </g>
  </g>
</svg>
